<svg width="16" height="16" viewBox="0 0 16 16" fill="none" xmlns="http://www.w3.org/2000/svg">
<g clip-path="url(#clip0)">
<path fill-rule="evenodd" clip-rule="evenodd" d="M11.1263 15.3737C10.996 15.3737 10.8808 15.3236 10.7806 15.2234L3.77658 8.21941C3.67638 8.11921 3.62628 8.00398 3.62628 7.87372C3.62628 7.74346 3.67638 7.62823 3.77658 7.52803L10.7806 0.524019C10.8808 0.423818 10.996 0.373718 11.1263 0.373718C11.2565 0.373718 11.3718 0.423818 11.472 0.524019L12.2235 1.27552C12.3237 1.37572 12.3738 1.49095 12.3738 1.62121C12.3738 1.75147 12.3237 1.8667 12.2235 1.9669L6.31667 7.87372L12.2235 13.7805C12.3237 13.8807 12.3738 13.996 12.3738 14.1262C12.3738 14.2565 12.3237 14.3717 12.2235 14.4719L11.472 15.2234C11.3718 15.3236 11.2565 15.3737 11.1263 15.3737Z" fill="#F50057"/>
<mask id="mask0" mask-type="alpha" maskUnits="userSpaceOnUse" x="3" y="0" width="10" height="16">
<path fill-rule="evenodd" clip-rule="evenodd" d="M11.1263 15.3737C10.996 15.3737 10.8808 15.3236 10.7806 15.2234L3.77658 8.21941C3.67638 8.11921 3.62628 8.00398 3.62628 7.87372C3.62628 7.74346 3.67638 7.62823 3.77658 7.52803L10.7806 0.524019C10.8808 0.423818 10.996 0.373718 11.1263 0.373718C11.2565 0.373718 11.3718 0.423818 11.472 0.524019L12.2235 1.27552C12.3237 1.37572 12.3738 1.49095 12.3738 1.62121C12.3738 1.75147 12.3237 1.8667 12.2235 1.9669L6.31667 7.87372L12.2235 13.7805C12.3237 13.8807 12.3738 13.996 12.3738 14.1262C12.3738 14.2565 12.3237 14.3717 12.2235 14.4719L11.472 15.2234C11.3718 15.3236 11.2565 15.3737 11.1263 15.3737Z" fill="white"/>
</mask>
<g mask="url(#mask0)">
</g>
</g>
<defs>
<clipPath id="clip0">
<rect width="16" height="16" fill="white"/>
</clipPath>
</defs>
</svg>
