<?xml version="1.0" encoding="UTF-8"?>
<svg width="296px" height="51px" viewBox="0 0 296 51" version="1.1" xmlns="http://www.w3.org/2000/svg" xmlns:xlink="http://www.w3.org/1999/xlink">
    <!-- Generator: Sketch 62 (91390) - https://sketch.com -->
    <title>Group</title>
    <desc>Created with Sketch.</desc>
    <g id="Simulation" stroke="none" stroke-width="1" fill="none" fill-rule="evenodd">
        <g id="0-0-Login" transform="translate(-810.000000, -207.000000)" fill-rule="nonzero">
            <g id="Group" transform="translate(810.000000, 207.000000)">
                <path d="M273.368204,1.27720207 C272.434105,1.23095759 271.626595,1.91381685 271.530055,2.83160622 L271.530055,47.1321244 C271.530055,48.1683938 272.055241,48.9455959 273.105611,48.9455959 L294.113028,48.9455959 C295.047127,48.9918403 295.854637,48.3089811 295.951177,47.3911917 L295.951177,44.2823834 C295.951177,42.9870466 295.425992,42.4689119 294.113028,42.4689119 L278.620058,42.4689119 L278.620058,28.2202073 L292.800065,28.2202073 C293.303561,28.2792907 293.806715,28.1073152 294.16525,27.7535933 C294.523786,27.3998713 294.698101,26.9034727 294.638214,26.4067358 L294.638214,23.5569948 C294.638214,22.261658 294.113028,21.7435233 292.800065,21.7435233 L278.620058,21.7435233 L278.620058,8.27202073 L294.113028,8.27202073 C294.604893,8.28651592 295.081019,8.10011294 295.428974,7.75682845 C295.77693,7.41354395 295.96587,6.94381037 295.951177,6.45854922 L295.951177,3.60880829 C296.07469,3.14768646 295.960582,2.65612776 295.645963,2.29399981 C295.331343,1.93187186 294.856409,1.74544004 294.375621,1.79533679 L294.113028,1.79533679 L273.368204,1.27720207 Z M244.220413,6.71761658 C250.785231,6.71761658 254.986714,10.8626943 254.986714,19.1528497 L254.986714,31.8471503 C254.986714,39.619171 250.785231,43.5051813 244.220413,43.5051813 C242.378607,43.5311511 240.536937,43.4446299 238.705966,43.246114 L238.705966,6.97668394 C240.544115,6.97668394 242.382264,6.71761658 244.220413,6.71761658 L244.220413,6.71761658 Z M244.745598,0.5 C240.01893,0.5 236.342632,0.759067358 233.191519,0.759067358 C232.141148,0.759067358 231.878555,1.53626943 231.878555,2.83160622 L231.878555,47.9093264 C231.803705,48.3910781 231.928557,48.8822765 232.224963,49.2721794 C232.52137,49.6620822 232.964379,49.9178667 233.454112,49.9818653 C236.867817,50.2409326 240.281522,50.2409326 243.95782,50.2409326 C255.774492,50.2409326 261.551532,43.5051813 261.551532,31.5880829 L261.551532,19.9300518 C261.551532,7.2357513 255.5119,0.5 244.745598,0.5 L244.745598,0.5 Z M206.407062,6.97668394 C211.921509,6.97668394 214.810029,10.0854922 214.810029,15.7849741 L214.810029,34.9559585 C214.810029,40.6554404 211.921509,43.7642487 206.407062,43.7642487 C200.892615,43.7642487 198.004096,40.6554404 198.004096,34.9559585 L198.004096,15.7849741 C198.004096,10.0854922 200.630023,6.97668394 206.407062,6.97668394 L206.407062,6.97668394 Z M206.407062,0.5 C195.640761,0.5 191.176685,6.45854922 191.176685,16.5621762 L191.176685,34.4378238 C191.176685,44.2823834 195.640761,50.5 206.407062,50.5 C217.173364,50.5 221.63744,44.5414508 221.63744,34.4378238 L221.63744,16.5621762 C221.374847,6.45854922 216.910771,0.5 206.407062,0.5 L206.407062,0.5 Z M179.360013,49.2046632 C180.294112,49.2509077 181.101622,48.5680484 181.198162,47.6502591 L181.198162,3.34974093 C181.321675,2.8886191 181.207566,2.3970604 180.892947,2.03493246 C180.578328,1.67280451 180.103394,1.48637268 179.622606,1.53626943 L176.2089,1.53626943 C175.274801,1.49002495 174.467291,2.17288421 174.370751,3.09067358 L174.370751,39.1010363 L161.766301,3.09067358 C161.558845,2.12699581 160.661367,1.46292348 159.66556,1.53626943 L152.838149,1.53626943 C151.90405,1.49002495 151.09654,2.17288421 151,3.09067358 L151,47.3911917 C151,48.4274611 151.525185,49.2046632 152.575556,49.2046632 L155.989262,49.2046632 C157.039632,49.2046632 157.827411,48.6865285 157.827411,47.6502591 L157.827411,11.6398964 L170.694453,47.6502591 C170.901909,48.6139368 171.799388,49.2780092 172.795195,49.2046632 L179.360013,49.2046632 Z" id="Shape" fill="#FF5A28"></path>
                <path d="M125.587272,16.8191489 C130.828264,16.8191489 133.71081,19.6276596 133.71081,26.2659574 L133.71081,35.2021277 C134.17396,39.3498684 131.144788,43.0958392 126.89752,43.6276596 L121.132429,43.6276596 L121.132429,17.0744681 C122.704726,17.0744681 124.014974,16.8191489 125.587272,16.8191489 L125.587272,16.8191489 Z M125.849321,10.9468085 C122.180627,10.9468085 119.036032,11.2021277 116.153486,11.2021277 C115.367337,11.2021277 114.843238,11.9680851 114.843238,12.9893617 L114.843238,47.4574468 C114.843238,48.2234043 115.367337,49.2446809 116.153486,49.2446809 L116.415536,49.2446809 C119.298081,49.2446809 122.180627,49.5 125.063173,49.5 C135.283107,49.5 140,43.8829787 140,34.6914894 L140,26.0106383 C140,16.5638298 134.759008,10.9468085 125.849321,10.9468085 L125.849321,10.9468085 Z M99.9064109,11.9680851 C98.9994909,11.990332 98.2333337,12.6301714 98.0720636,13.5 L98.0720636,38.7765957 L88.1141788,13.5 C87.8388545,12.741151 87.1058787,12.2310438 86.2798315,12.2234043 L80.7767899,12.2234043 C79.9843497,12.1638774 79.2872968,12.7298356 79.2044923,13.5 L79.2044923,47.2021277 C79.2044923,48.2234043 79.7285915,48.9893617 80.7767899,48.9893617 L83.6593355,48.9893617 C84.4853826,48.9817222 85.2183585,48.4716149 85.4936827,47.712766 L85.4936827,21.9255319 L95.7136172,47.712766 C95.9889415,48.4716149 96.7219173,48.9817222 97.5479644,48.9893617 L102.788956,48.9893617 C103.837155,48.9893617 104.361254,48.4787234 104.361254,47.2021277 L104.361254,14.0106383 C104.361254,12.9893617 103.837155,12.2234043 102.788956,12.2234043 L99.9064109,11.9680851 Z M62.6953673,11.9680851 C61.9029272,11.9085582 61.2058743,12.4745164 61.1230697,13.2446809 L61.1230697,46.9468085 C61.1230697,47.9680851 61.6471689,48.7340426 62.6953673,48.7340426 L65.577913,48.7340426 C66.6261114,48.7340426 67.1502106,48.2234043 67.1502106,46.9468085 L67.1502106,13.7553191 C67.4122602,12.9893617 66.6261114,12.2234043 65.8399626,11.9680851 L62.6953673,11.9680851 L62.6953673,11.9680851 Z M48.8067384,1.5 C47.7646352,1.54400246 46.8934366,2.2867224 46.7103416,3.28723404 L46.7103416,3.28723404 L39.6350023,41.0744681 L31.7735143,3.28723404 C31.7579006,2.79072174 31.5113259,2.32808909 31.1034539,2.03004191 C30.695582,1.73199474 30.1707061,1.63089983 29.6771175,1.75531915 L24.1740758,1.75531915 C23.213788,1.78456518 22.3753759,2.39722396 22.077679,3.28723404 L14.2161909,41.3297872 L6.87880206,3.54255319 C6.89346412,3.06431284 6.70491537,2.60137541 6.35767916,2.26305758 C6.01044296,1.92473975 5.53530206,1.74103367 5.04445484,1.75531915 L1.63781001,1.75531915 C0.327562003,1.75531915 -0.196537202,2.5212766 0.0655124006,3.79787234 L9.49929808,47.2021277 C9.48463602,47.680368 9.67318477,48.1433054 10.020421,48.4816233 C10.3676572,48.8199411 10.8427981,49.0036472 11.3336453,48.9893617 L16.8366869,48.9893617 C17.768854,49.0349371 18.5746939,48.3619575 18.6710342,47.4574468 L18.6710342,47.4574468 L26.7945718,9.92553191 L34.9181095,47.4574468 C34.9034474,47.9356872 35.0919962,48.3986246 35.4392324,48.7369424 C35.7864686,49.0752602 36.2616095,49.2589663 36.7524567,49.2446809 L42.517548,49.2446809 C43.449715,49.2902563 44.255555,48.6172767 44.3518952,47.712766 L44.3518952,47.712766 L53.7856809,4.30851064 C54.0477305,3.03191489 53.5236313,2.26595745 52.2133832,2.26595745 L48.8067384,1.5 Z" id="Shape" fill="#007A8A"></path>
            </g>
        </g>
    </g>
</svg>