<svg width="17" height="17" viewBox="0 0 17 17" fill="none" xmlns="http://www.w3.org/2000/svg">
<path fill-rule="evenodd" clip-rule="evenodd" d="M15.1529 14.1667L8.50005 1.41666L1.84717 14.1667H15.1529ZM13.3126 13.1042L9.19783 4.92813L9.20838 4.60416H9.03478L8.50005 3.54166L7.96532 4.60416H7.79172L7.80306 4.92656L3.68747 13.1042H13.3126ZM8.85422 10.4517H8.14588L7.96638 4.95832H9.02728L8.85422 10.4517ZM9.42088 11.6875C9.42088 12.1961 9.00861 12.6083 8.50005 12.6083C7.99149 12.6083 7.57922 12.1961 7.57922 11.6875C7.57922 11.1789 7.99149 10.7667 8.50005 10.7667C9.00861 10.7667 9.42088 11.1789 9.42088 11.6875Z" fill="#FF9900"/>
</svg>
