<?xml version="1.0" encoding="utf-8"?>
<!-- Generator: Adobe Illustrator 23.0.2, SVG Export Plug-In . SVG Version: 6.00 Build 0)  -->
<svg version="1.1" id="Layer_1" xmlns="http://www.w3.org/2000/svg" xmlns:xlink="http://www.w3.org/1999/xlink" x="0px" y="0px"
	 viewBox="0 0 24 24" style="enable-background:new 0 0 24 24;" xml:space="preserve">
<title>iconmonstr-warning-6</title>
<desc>Created with Sketch.</desc>
<g>
	<path d="M19.2,2.2l-1.5,1.5c1.6,1,2.9,2.2,3.6,3c-1.4,1.9-4.7,5.4-9.5,5.4c-0.7,0-1.5-0.1-2.2-0.3L8,13.4c1.2,0.4,2.5,0.7,3.9,0.7
		c7.7,0,12-7.4,12-7.4S22.3,4.2,19.2,2.2z"/>
	<path d="M17.1,0l-0.9,0.8c-1.3-0.4-2.7-0.7-4.2-0.7C4.4,0.1,0,6.7,0,6.7s1.9,3,5.1,5.1l-2.9,2.9l1.4,1.4L20.1,0H17.1z M13.5,3.5
		C10.2,2,6.8,5.4,8.2,8.7l-1.7,1.7C4.7,9.2,3.3,7.8,2.4,6.7c1.5-1.6,4.8-4.6,9.5-4.6c0.9,0,1.8,0.1,2.6,0.3L13.5,3.5z"/>
	<path d="M15.7,5.9l-5.1,5C13.7,12,16.7,9,15.7,5.9z"/>
</g>
</svg>
