<svg width="24" height="24" viewBox="0 0 24 24" fill="none" xmlns="http://www.w3.org/2000/svg">
<path fill-rule="evenodd" clip-rule="evenodd" d="M19.5816 2L16.2678 5.20109C14.9623 4.78804 13.5565 4.47826 12.0502 4.47826C4.41841 4.47826 0 11.2935 0 11.2935C0 11.2935 1.90795 14.3913 5.12134 16.5598L2.2092 19.5543L3.61506 21L21.0879 3.44565L19.5816 2ZM13.5565 7.98913C10.2427 6.44022 6.82845 9.95109 8.23431 13.3587L6.5272 15.1141C4.71967 13.875 3.31381 12.4293 2.41004 11.2935C3.91632 9.6413 7.23013 6.54348 11.9498 6.54348C12.8536 6.54348 13.7573 6.64674 14.5607 6.85326L13.5565 7.98913ZM10.6444 15.6304L15.7657 10.4674C16.7699 13.6685 13.7573 16.7663 10.6444 15.6304ZM24 11.2935C24 11.2935 19.682 18.9348 11.9498 18.9348C10.5439 18.9348 9.23849 18.625 8.03347 18.212L9.64017 16.5598C10.3431 16.7663 11.1464 16.8696 11.8494 16.8696C16.6695 16.8696 19.9833 13.2554 21.3891 11.2935C20.6862 10.4674 19.3808 9.22826 17.7741 8.19565L19.2803 6.64674C22.3933 8.71196 24 11.2935 24 11.2935Z" fill="#445A64"/>
</svg>
